# AST/ASF file generated using VICON BodyLanguage
# -----------------------------------------------
:version 1.10
:name VICON
:units
  mass 1.0
  length 0.45
  angle deg
:documentation
   .ast/.asf automatically generated from VICON data using
   VICON BodyBuilder and BodyLanguage model FoxedUp or BRILLIANT.MOD
:root
   order TX TY TZ RX RY RZ
   axis XYZ
   position 0 0 0  
   orientation 0 0 0 
:bonedata
  begin
     id 1 
     name lhipjoint
     direction 0.64773 -0.699417 0.302095 
     length 2.48597 
     axis 0 0 0  XYZ
  end
  begin
     id 2 
     name lfemur
     direction 0.34202 -0.939693 0  
     length 6.71947  
     axis 0 0 20  XYZ
    dof rx ry rz
    limits (-160.0 20.0)
           (-70.0 70.0)
           (-60.0 70.0)
  end
  begin
     id 3 
     name ltibia
     direction 0.34202 -0.939693 0   
     length 8.08777   
     axis 0 0 20   XYZ
    dof rx
    limits (-10.0 170.0)
  end
  begin
     id 4 
     name lfoot
     direction 0.0808503 -0.222134 0.971658   
     length 2.08264   
     axis -90 7.62852e-016 20   XYZ
    dof rx rz
    limits (-45.0 90.0)
           (-70.0 20.0)
  end
  begin
     id 5 
     name ltoes
     direction 1.53502e-011 -4.22007e-011 1   
     length 1.04662   
     axis -90 7.62852e-016 20   XYZ
    dof rx
    limits (-90.0 20.0)
  end
  begin
     id 6 
     name rhipjoint
     direction -0.610924 -0.726792 0.313919   
     length 2.39233  
     axis 0 0 0  XYZ 
  end
  begin
     id 7 
     name rfemur
     direction -0.34202 -0.939693 0   
     length 6.96955   
     axis 0 0 -20   XYZ
    dof rx ry rz
    limits (-160.0 20.0)
           (-70.0 70.0)
           (-70.0 60.0)
  end
  begin
     id 8 
     name rtibia
     direction -0.34202 -0.939693 0   
     length 8.19584   
     axis 0 0 -20   XYZ
    dof rx
    limits (-10.0 170.0)
 end
 begin
     id 9 
     name rfoot
     direction -0.077777 -0.213691 0.9738   
     length 2.07539  
     axis -90 -7.62852e-016 -20   XYZ
    dof rx rz
    limits (-45.0 90.0)
           (-20.0 70.0)
  end
  begin
     id 10 
     name rtoes
     direction -1.53558e-011 -4.22006e-011 1   
     length 1.04381   
     axis -90 -7.62852e-016 -20   XYZ
    dof rx
    limits (-90.0 20.0)
  end
  begin
     id 11 
     name lowerback
     direction -0.00971646 0.996074 0.0879841   
     length 1.67643   
     axis 0 0 0   XYZ
    dof rx ry rz
    limits (-20.0 45.0)
           (-30.0 30.0)
           (-30.0 30.0)
  end
  begin
     id 12 
     name upperback
     direction 0.0127391 0.991676 0.128127   
     length 1.63741   
     axis 0 0 0   XYZ
    dof rx ry rz
    limits (-20.0 45.0)
           (-30.0 30.0)
           (-30.0 30.0)
  end
  begin
     id 13 
     name thorax
     direction 0.0167583 0.996049 0.0872067   
     length 1.65931   
     axis 0 0 0   XYZ
    dof rx ry rz
    limits (-20.0 45.0)
           (-30.0 30.0)
           (-30.0 30.0)
  end
  begin
     id 14 
     name lowerneck
     direction -0.0317829 0.998312 0.0486079   
     length 1.79021   
     axis 0 0 0   XYZ
    dof rx ry rz
    limits (-20.0 45.0)
           (-30.0 30.0)
           (-30.0 30.0)
  end
  begin
     id 15 
     name upperneck
     direction 0.0896851 0.972452 -0.215159   
     length 1.78797   
     axis 0 0 0   XYZ
    dof rx ry rz
    limits (-20.0 45.0)
           (-30.0 30.0)
           (-30.0 30.0)
  end
  begin
     id 16
     name head
     direction 0.0310949 0.996503 -0.0775582  
     length 1.81549  
     axis 0 0 0   XYZ
    dof rx ry rz
    limits (-20.0 45.0)
           (-30.0 30.0)
           (-30.0 30.0)
  end
  begin
     id 17 
     name lclavicle
     direction 0.853638 0.502051 -0.138733  
     length 3.31627  
     axis 0 0 0   XYZ
    dof ry rz
    limits (-20.0 10.0)
           (0.0 20.0)
  end
  begin
     id 18 
     name lhumerus
     direction 1 -4.48962e-011 -1.41788e-018   
     length 5.54893   
     axis 180 -30 -90   XYZ
    dof rx ry rz
    limits (-60.0 90.0)
           (-90.0 90.0)
           (-90.0 90.0)
  end
  begin
     id 19
     name lradius
     direction 1 -4.48962e-011 -4.95754e-027   
     length 3.02898   
     axis 180 -30 -90   XYZ
    dof rx
    limits (-10.0 170.0)
  end
  begin
     id 20
     name lwrist
     direction 1 -4.48952e-011 -1.03764e-026   
     length 1.51449   
     axis 9.09556e-015 90 90   XYZ
    dof ry
    limits (-180.0 0.0)
 end
  begin
     id 21 
     name lhand
     direction 1 -4.4902e-011 -2.07528e-026   
     length 0.640951   
     axis 1.3242e-014 90 90   XYZ
    dof rx rz
    limits (-90.0 90.0)
           (-45.0 45.0)
  end
  begin
     id 22 
     name lfingers
     direction 1 -4.49014e-011 -4.15056e-026   
     length 0.516751   
     axis 2.64841e-014 90 90   XYZ
    dof rx
    limits (0.0 90.0)
  end
  begin
     id 23
     name lthumb
     direction 0.707107 -6.35008e-011 0.707107   
     length 0.741954   
     axis -90 45 2.85299e-015   XYZ
    dof rx rz
    limits (-45.0 45.0)
           (-45.0 45.0)
  end
  begin
     id 24 
     name rclavicle
     direction -0.888531 0.455324 -0.0565039   
     length 3.20126  
     axis 0 0 0   XYZ 
    dof ry rz
    limits (-10.0 20.0)
           (-20.0 0.0)
  end
  begin
     id 25 
     name rhumerus
     direction -1 -4.48946e-011 -8.98298e-028  
     length 5.3519   
     axis 180 30 90   XYZ
    dof rx ry rz
    limits (-90.0 60.0)
           (-90.0 90.0)
           (-90.0 90.0)
  end
  begin
     id 26 
     name rradius
     direction -1 -4.4899e-011 -3.18779e-027   
     length 3.02531   
     axis 180 30 90   XYZ
    dof rx
    limits (-10.0 170.0)
  end
  begin
     id 27 
     name rwrist
     direction -1 -4.4897e-011 -1.03764e-026   
     length 1.51266   
     axis 9.09556e-015 -90 -90   XYZ
    dof ry
    limits (-180.0 0.0)
  end
  begin
     id 28
     name rhand
     direction -1 -4.48941e-011 -2.07528e-026   
     length 0.78389   
     axis 1.3242e-014 -90 -90   XYZ
    dof rx rz
    limits (-90.0 90.0)
           (-45.0 45.0)
  end
  begin
     id 29
     name rfingers
     direction -1 -4.49012e-011 -4.15056e-026   
     length 0.631992   
     axis 2.64841e-014 -90 -90   XYZ
    dof rx
    limits (0.0 90.0)
  end
  begin
     id 30
     name rthumb
     direction -0.707107 -6.3496e-011 0.707107   
     length 0.907418   
     axis -90 -45 -2.85299e-015   XYZ
    dof rx rz
    limits (-45.0 45.0)
           (-45.0 45.0)
  end
:hierarchy
  begin
    root lhipjoint rhipjoint lowerback
    lhipjoint lfemur
    lfemur ltibia
    ltibia lfoot
    lfoot ltoes
    rhipjoint rfemur
    rfemur rtibia
    rtibia rfoot
    rfoot rtoes
    lowerback upperback
    upperback thorax
    thorax lowerneck lclavicle rclavicle
    lowerneck upperneck
    upperneck head
    lclavicle lhumerus
    lhumerus lradius
    lradius lwrist
    lwrist lhand lthumb
    lhand lfingers
    rclavicle rhumerus
    rhumerus rradius
    rradius rwrist
    rwrist rhand rthumb
    rhand rfingers
  end

#!OML:ASF E:\Style3\Style3.ASF
:FULLY-SPECIFIED
:DEGREES
735
root 1.07823 17.7773 0.791812 -175.292 78.9077 170.21
lowerback -10.2047 -2.59159 -0.181982
upperback -8.18303 -3.00701 -0.506923
thorax -2.83085 -1.33186 -0.6573
lowerneck -14.0226 -4.74637 -7.01331
upperneck 23.3437 -7.71312 12.4906
head 10.579 -2.57618 4.66846
rclavicle 1.46355e-014 5.46658e-015
rhumerus -106.364 40.3092 -125.105
rradius 105.458
rwrist 6.74422
rhand -6.78414 33.8968
rfingers 7.12502
rthumb 19.0784 4.81251
lclavicle 1.46355e-014 5.46658e-015
lhumerus -68.2382 -46.3725 82.5908
lradius 76.4597
lwrist 30.4485
lhand 27.4613 27.2812
lfingers 7.12502
lthumb 51.4107 47.7304
rfemur -9.30482 9.65345 19.3463
rtibia 15.0872
rfoot -22.2243 -28.6942
rtoes -4.17045
lfemur -5.90058 -30.695 -13.5227
ltibia -1.27222e-014
lfoot -6.47927 27.2933
ltoes -25.5912
736
root 1.07174 17.7761 0.798887 -175.225 78.934 170.285
lowerback -10.1902 -2.60221 -0.18246
upperback -8.17897 -3.02192 -0.490623
thorax -2.83367 -1.33926 -0.640751
lowerneck -14.0824 -4.74049 -6.9458
upperneck 23.2737 -7.70654 12.4526
head 10.56 -2.57293 4.64004
rclavicle -2.77274e-014 -6.73383e-015
rhumerus -106.174 40.2175 -124.844
rradius 105.482
rwrist 6.70239
rhand -6.64622 34.0145
rfingers 7.12502
rthumb 19.211 4.94337
lclavicle -2.77274e-014 -6.73383e-015
lhumerus -65.5848 -46.677 79.3526
lradius 74.9145
lwrist 30.0035
lhand 27.3088 27.4585
lfingers 7.12502
lthumb 51.272 47.9869
rfemur -9.40097 9.65163 19.3789
rtibia 15.2104
rfoot -22.2131 -28.6729
rtoes -4.13821
lfemur -5.91461 -30.6646 -13.4857
ltibia 4.77083e-015
lfoot -6.44678 27.3258
ltoes -25.7455
737
root 1.06676 17.7754 0.80467 -175.114 78.9685 170.371
lowerback -10.2238 -2.69685 -0.243038
upperback -8.15127 -3.14463 -0.395063
thorax -2.77841 -1.39687 -0.519434
lowerneck -14.2394 -4.67092 -6.89493
upperneck 23.2037 -7.61257 12.4493
head 10.5523 -2.52524 4.63901
rclavicle 1.33698e-014 -2.73329e-016
rhumerus -106.142 40.3989 -124.793
rradius 105.504
rwrist 6.66936
rhand -6.6202 34.0835
rfingers 7.12502
rthumb 19.2361 5.01481
lclavicle 1.33698e-014 -2.73329e-016
lhumerus -63.09 -46.7073 76.2505
lradius 73.3204
lwrist 29.4521
lhand 25.7958 27.3357
lfingers 7.12502
lthumb 49.8908 48.6155
rfemur -9.58379 9.62404 19.4
rtibia 15.4278
rfoot -22.1923 -28.6001
rtoes -4.29921
lfemur -5.95579 -30.6216 -13.4268
ltibia 3.18055e-015
lfoot -6.57033 27.3206
ltoes -25.3989
738
root 1.06302 17.7817 0.811434 -175.063 79.0106 170.432
lowerback -10.2342 -2.76531 -0.324711
upperback -8.11007 -3.23253 -0.317409
thorax -2.72051 -1.43712 -0.401791
lowerneck -14.3282 -4.59335 -6.86683
upperneck 23.0529 -7.51399 12.519
head 10.5054 -2.4736 4.66753
rclavicle -5.59773e-014 -2.09966e-014
rhumerus -106.055 40.5414 -124.723
rradius 105.528
rwrist 6.6471
rhand -6.57805 34.0318
rfingers 7.12502
rthumb 19.2766 4.96721
lclavicle -5.59773e-014 -2.09966e-014
lhumerus -60.6416 -46.9076 73.3218
lradius 71.5386
lwrist 28.6542
lhand 23.8084 26.8629
lfingers 7.12502
lthumb 48.0649 49.0454
rfemur -9.68408 9.72789 19.3977
rtibia 15.5943
rfoot -22.6891 -28.3077
rtoes -2.98214
lfemur -5.94784 -30.5753 -13.3972
ltibia 4.13472e-014
lfoot -6.71723 27.2997
ltoes -24.9095
739
root 1.05977 17.7874 0.820018 -175.12 79.0925 170.371
lowerback -10.1879 -2.76304 -0.368277
upperback -8.14286 -3.22556 -0.30681
thorax -2.77716 -1.43075 -0.3632
lowerneck -14.293 -4.55942 -6.84548
upperneck 22.8868 -7.47245 12.5718
head 10.4349 -2.45414 4.68338
rclavicle 4.12548e-014 1.37286e-015
rhumerus -105.98 40.492 -124.596
rradius 105.537
rwrist 6.63315
rhand -6.541 34.0028
rfingers 7.12502
rthumb 19.3122 4.94176
lclavicle 4.12548e-014 1.37286e-015
lhumerus -58.3831 -47.4882 70.7007
lradius 69.6359
lwrist 27.4902
lhand 21.5985 26.7571
lfingers 7.12502
lthumb 46.0212 49.8428
rfemur -9.77734 9.88405 19.3753
rtibia 15.7076
rfoot -23.1705 -28.0204
rtoes -1.9034
lfemur -5.9453 -30.4894 -13.3842
ltibia -1.27222e-014
lfoot -6.70672 27.2945
ltoes -25.018
740
root 1.05298 17.781 0.827713 -175.052 79.1602 170.452
lowerback -10.0516 -2.79009 -0.371412
upperback -8.23469 -3.25877 -0.263914
thorax -2.94592 -1.44412 -0.311206
lowerneck -14.2316 -4.51033 -6.83985
upperneck 22.8038 -7.39968 12.5714
head 10.3837 -2.42577 4.68989
rclavicle -2.42851e-014 -1.81857e-015
rhumerus -106.131 40.4933 -124.604
rradius 105.58
rwrist 6.6147
rhand -6.6412 33.9456
rfingers 7.12502
rthumb 19.2159 4.87494
lclavicle -2.42851e-014 -1.81857e-015
lhumerus -56.4351 -48.1103 68.3851
lradius 67.6431
lwrist 25.7485
lhand 18.6137 26.3955
lfingers 7.12502
lthumb 43.2415 50.5555
rfemur -9.8874 9.79017 19.4401
rtibia 15.8323
rfoot -22.7592 -28.136
rtoes -3.30696
lfemur -5.93877 -30.4169 -13.3482
ltibia 1.27222e-014
lfoot -6.50052 27.2987
ltoes -25.5818
741
root 1.04544 17.7746 0.832037 -175.443 79.1776 170.061
lowerback -9.97135 -2.89277 -0.436269
upperback -8.31232 -3.38762 -0.196941
thorax -3.06441 -1.50225 -0.209544
lowerneck -14.1063 -4.40346 -6.96192
upperneck 22.6633 -7.23091 12.6518
head 10.2962 -2.36025 4.7603
rclavicle 1.42193e-014 1.68967e-015
rhumerus -106.349 40.6524 -124.66
rradius 105.656
rwrist 6.69937
rhand -6.71181 33.863
rfingers 7.12502
rthumb 19.148 4.78556
lclavicle 1.42193e-014 1.68967e-015
lhumerus -54.5749 -48.5504 66.1979
lradius 65.424
lwrist 23.0765
lhand 15.4312 25.9971
lfingers 7.12502
lthumb 40.2574 51.145
rfemur -9.8962 9.50817 19.3931
rtibia 15.7697
rfoot -22.0462 -28.2782
rtoes -4.6057
lfemur -5.94883 -30.4039 -13.4068
ltibia -3.18055e-015
lfoot -6.62612 27.279
ltoes -25.2901
742
root 1.0394 17.776 0.837716 -175.986 79.2034 169.474
lowerback -10.0011 -2.98678 -0.577696
upperback -8.34328 -3.49977 -0.138323
thorax -3.0688 -1.5495 -0.0790457
lowerneck -14.0519 -4.31937 -7.0743
upperneck 22.5249 -7.09661 12.7351
head 10.2272 -2.30706 4.8245
rclavicle -1.3244e-014 -1.29707e-014
rhumerus -106.377 40.7902 -124.534
rradius 105.743
rwrist 6.83134
rhand -6.66959 33.7952
rfingers 7.12502
rthumb 19.1886 4.72179
lclavicle -1.3244e-014 -1.29707e-014
lhumerus -52.6538 -49.083 64.0845
lradius 63.0839
lwrist 19.6691
lhand 12.2007 25.5021
lfingers 7.12502
lthumb 37.2105 51.5119
rfemur -9.98119 9.33594 19.2767
rtibia 15.7846
rfoot -21.8488 -28.1746
rtoes -4.78978
lfemur -6.0017 -30.3804 -13.4824
ltibia 9.54166e-015
lfoot -6.84243 27.2776
ltoes -24.8522
743
root 1.03073 17.7629 0.845257 -176.353 79.2842 169.061
lowerback -10.0527 -3.0381 -0.708119
upperback -8.34237 -3.55765 -0.0984269
thorax -3.02894 -1.57156 0.0278438
lowerneck -14.0556 -4.26089 -7.07309
upperneck 22.3735 -7.00496 12.7389
head 10.1626 -2.27106 4.83234
rclavicle 3.09545e-014 1.84373e-014
rhumerus -106.311 40.9023 -124.347
rradius 105.853
rwrist 6.77647
rhand -6.54089 33.7726
rfingers 7.12502
rthumb 19.3123 4.71156
lclavicle 3.09545e-014 1.84373e-014
lhumerus -50.6869 -49.8326 62.0421
lradius 60.5791
lwrist 15.4457
lhand 8.58598 24.8324
lfingers 7.12502
lthumb 33.784 51.6638
rfemur -10.0742 9.0451 19.2507
rtibia 15.7259
rfoot -20.8514 -28.4504
rtoes -7.39032
lfemur -6.06744 -30.2964 -13.512
ltibia -1.59028e-015
lfoot -6.83902 27.2725
ltoes -24.809
744
root 1.02615 17.7767 0.852427 -176.56 79.3756 168.823
lowerback -10.0341 -3.10837 -0.752792
upperback -8.3824 -3.64624 -0.0581074
thorax -3.07566 -1.61191 0.0898892
lowerneck -13.9757 -4.15937 -7.08052
upperneck 22.1798 -6.86142 12.7978
head 10.0632 -2.20935 4.86811
rclavicle 1.00014e-015 -3.47873e-016
rhumerus -106.321 41.0717 -124.264
rradius 105.957
rwrist 6.62612
rhand -6.21639 33.7695
rfingers 7.12502
rthumb 19.6243 4.74001
lclavicle 1.00014e-015 -3.47873e-016
lhumerus -48.888 -50.5929 60.1417
lradius 57.8529
lwrist 10.2674
lhand 5.17365 24.4172
lfingers 7.12502
lthumb 30.5356 51.9062
rfemur -10.2184 9.26099 19.1484
rtibia 15.9081
rfoot -21.9501 -27.8386
rtoes -4.45995
lfemur -6.10943 -30.2019 -13.5249
ltibia -6.36111e-015
lfoot -6.91977 27.2457
ltoes -24.5804
745
root 1.01289 17.7646 0.857098 -176.693 79.4261 168.654
lowerback -9.94681 -3.19232 -0.748562
upperback -8.44748 -3.75702 -0.0384557
thorax -3.19065 -1.6655 0.106273
lowerneck -13.8456 -4.02879 -7.03033
upperneck 21.9303 -6.69261 12.8838
head 9.93056 -2.13083 4.90512
rclavicle -4.77083e-015 -1.16289e-014
rhumerus -106.323 41.1875 -124.231
rradius 106.01
rwrist 6.65107
rhand -5.95865 33.7374
rfingers 7.12502
rthumb 19.8721 4.73341
lclavicle -4.77083e-015 -1.16289e-014
lhumerus -47.0264 -51.3604 58.2145
lradius 54.8541
lwrist 4.27188
lhand 2.20011 24.2871
lfingers 7.12502
lthumb 27.696 52.2677
rfemur -10.3545 8.8462 19.1792
rtibia 15.9038
rfoot -20.642 -28.2011
rtoes -8.21865
lfemur -6.18711 -30.1463 -13.5098
ltibia -1.74931e-014
lfoot -6.91465 27.2455
ltoes -24.6858
746
root 1.00516 17.7801 0.865427 -176.834 79.5205 168.493
lowerback -9.83684 -3.26524 -0.793223
upperback -8.48556 -3.85267 -0.0119662
thorax -3.28568 -1.7102 0.158686
lowerneck -13.8444 -3.89681 -6.95372
upperneck 21.7776 -6.52924 12.9587
head 9.85718 -2.0464 4.93528
rclavicle 2.8538e-014 -4.72114e-015
rhumerus -106.279 41.3249 -124.206
rradius 106.063
rwrist 6.73027
rhand -5.88265 33.626
rfingers 7.12502
rthumb 19.9452 4.62954
lclavicle 2.8538e-014 -4.72114e-015
lhumerus -45.0851 -52.1069 56.2602
lradius 51.6785
lwrist -2.42636
lhand -0.509302 24.39
lfingers 7.12502
lthumb 25.1025 52.76
rfemur -10.562 9.0282 19.1008
rtibia 16.1934
rfoot -21.5901 -27.6373
rtoes -5.54834
lfemur -6.22908 -30.0453 -13.4905
ltibia 3.18055e-015
lfoot -6.8663 27.1944
ltoes -24.7648
